<svg xmlns="http://www.w3.org/2000/svg" width="2873" height="2872" fill="#009b4c"><path d="M1449.796 26.5c392.858 0 748.437 159.355 1006.1 416.618 257.672 257.672 416.618 613.252 416.618 1006.1s-159.355 748.437-416.618 1006.1c-257.672 257.672-613.252 416.618-1006.1 416.618S701.36 2712.6 443.687 2455.327C186.015 2197.655 27.07 1842.076 27.07 1449.218s159.355-748.437 416.618-1006.1C701.36 185.436 1056.938 26.5 1449.796 26.5zm919.263 503.464c-235.14-235.14-560.406-380.568-919.263-380.568s-684.12 145.417-919.263 380.56-380.568 560.406-380.568 919.263 145.427 684.122 380.568 919.263 560.406 380.568 919.263 380.568 684.122-145.427 919.263-380.568 380.568-560.406 380.568-919.263S2604.2 765.096 2369.06 529.955zM991.394 1468.47c0 72.1-16.796 129.86-50.797 172.055-30.314 37.688-74.967 64.725-133.547 80.702-49.568 13.52-112.655 20.483-188.85 20.483-86.847 0-154.44-15.976-202.37-48.34-52.436-35.23-78.654-87.666-78.654-157.717 0-38.917 5.735-79.063 17.205-121.258 9.422-35.64 24.17-74.967 43.423-117.16 13.928-30.724 33.182-68.003 57.352-111.016l23.76 12.7c-17.205 30.314-31.543 57.352-43.014 81.1-15.157 31.953-26.627 60.63-34 86.027-8.603 30.724-13.1 60.22-13.1 89.305 0 55.303 20.073 97.088 60.63 125.764 40.146 28.676 96.27 42.604 167.958 42.604 76.196 0 146.656-13.1 211.8-39.327 71.28-29.085 106.92-63.496 106.92-103.642 0-43.833-6.964-117.98-20.483-222.852l-39.327-269.96-22.12-131.5-30.724-16.386c0-60.63 12.3-115.932 36.87-165.5h11.88c2.048 17.205 4.916 29.905 9.422 38.098s11.88 14.748 22.12 18.844c13.928 5.735 29.085 12.7 45.472 20.892l31.543 15.567c0 31.543-1.23 54.484-3.277 69.23s-6.554 34.82-13.52 61.038l-38.507-12.3c.82 9.832 7.374 55.303 19.254 136.415l31.134 230.225c11.06 93.8 16.386 165.9 16.386 215.888h-.82zm554.67-270.78c0 9.012-.4 16.796-1.23 22.94-.82 6.554-2.868 14.338-6.554 23.76-25.4-56.532-62.677-114.703-112.655-174.922-54.894-66.364-98.317-99.546-129.86-99.546-6.964 0-13.52 6.145-20.483 18.025-6.554 11.88-14.748 17.615-23.76 17.615-12.3 0-31.543-7.783-57.76-23.76-32.772-20.073-59.4-43.014-79.063-69.23-26.627-35.23-40.146-72.918-40.146-112.655 0-28.676 9.422-43.014 27.856-43.014 32.363 0 83.16 20.483 152.4 61.858 77.425 45.472 142.15 98.727 194.586 160.175 64.725 74.557 96.678 147.475 96.678 219.165v-.4zm281.432 355.17h-41.785c-38.098 0-68.822-20.483-92.172-61.448-27.447-49.568-41.375-124.944-41.375-225.3 0-7.374-.82-16.796-2.458-29.085-1.64-11.88-2.458-19.663-2.458-22.94-43.423 120.438-81.93 203.188-115.932 247.84-40.146 52.436-96.678 86.847-169.597 104.052-62.267 14.748-167.958 21.712-317.9 21.712v-19.254c121.258-36.46 211.8-68.003 271.2-94.63 95.86-42.604 168.777-91.353 218.345-147.066 59.8-66.774 89.714-145.837 89.714-237.6 0-44.243-2.868-85.618-8.193-123.715-5.735-38.507-13.1-77.834-22.94-117.98l22.12-57.352c9.012-22.12 17.205-40.965 25-56.532 11.88 65.135 23.35 135.595 33.592 210.562l43.833 344.52c8.193 56.942 20.483 97.498 36.87 122.077 11.06 16.386 21.712 24.17 32.772 24.17h41.375v117.98zm735.738 0h-783.258v-117.98H2332.6c-45.88-36.05-84.798-63.496-116.75-83.57-39.327-25-75.376-43.014-107.74-54.484-36.46-12.7-73.738-18.844-111.016-18.844-23.35 0-46.3 1.64-70.05 4.916 13.1-33.182 30.314-60.22 51.616-80.292 30.724-29.495 69.64-43.833 116.75-43.833 45.88 0 100.365 22.53 163.452 68.003 31.134 22.53 81.93 65.545 152.4 128.63 54.484 49.158 91.762 75.786 111.016 79.882h40.556v117.98l.4-.4zM958.212 2212.812a7.87 7.87 0 0 1-1.639 4.916c-1.23 1.23-3.277 2.458-5.735 3.687-2.868.82-6.145 1.64-10.65 2.048s-10.24.82-16.796.82c-6.964 0-12.7-.4-17.205-.82s-8.193-1.23-10.65-2.048-4.506-2.048-5.735-3.687a7.87 7.87 0 0 1-1.639-4.916v-140.92h-130.68v140.92a7.87 7.87 0 0 1-1.639 4.916c-.82 1.23-2.868 2.458-5.735 3.687-2.868.82-6.145 1.64-10.65 2.048s-10.24.82-17.205.82-12.7-.4-17.205-.82-8.193-1.23-10.65-2.048c-2.868-.82-4.506-2.048-5.735-3.687a7.87 7.87 0 0 1-1.639-4.916V1883.45a7.87 7.87 0 0 1 1.639-4.916c1.23-1.23 3.277-2.458 5.735-3.687 2.868-.82 6.145-1.64 10.65-2.048s10.24-.82 17.205-.82 12.7.4 17.205.82 8.193 1.23 10.65 2.048c2.868.82 4.506 2.048 5.735 3.687a7.87 7.87 0 0 1 1.639 4.916v128.222h130.68V1883.45a7.87 7.87 0 0 1 1.639-4.916c1.23-1.23 2.868-2.458 5.735-3.687 2.868-.82 6.145-1.64 10.65-2.048s10.24-.82 17.205-.82c6.554 0 12.3.4 16.796.82s8.193 1.23 10.65 2.048c2.868.82 4.506 2.048 5.735 3.687a7.87 7.87 0 0 1 1.639 4.916v329.362zm383.026-16.796c2.048 6.554 3.687 11.47 4.097 15.157s0 6.554-2.048 8.603c-2.048 1.64-5.325 2.868-10.65 3.687-4.916.4-11.88.82-20.483.82-9.012 0-16.386 0-21.302-.4-5.325-.4-9.012-.82-11.88-1.64s-4.506-2.048-5.735-3.277-2.048-3.277-2.868-5.735l-22.94-70.05h-131.5l-22.12 68.003c-.82 2.458-1.64 4.506-2.868 6.145s-2.868 2.868-5.735 4.097c-2.458.82-6.145 1.64-11.06 2.048s-11.06.4-18.844.4c-8.193 0-14.748-.4-19.254-.82s-7.783-1.64-9.832-3.687c-1.64-2.048-2.458-4.916-2.048-9.012.4-3.687 2.048-8.603 4.097-15.157l107.33-309.3c.82-2.868 2.458-5.325 3.687-7.374s3.687-3.277 6.964-4.506c3.277-.82 7.374-1.64 13.1-2.048 5.325-.4 12.7-.4 22.12-.4 10.65 0 18.844 0 25.4.4 6.145.4 11.06.82 14.748 2.048 3.687.82 6.145 2.458 7.374 4.506 1.64 2.048 2.868 4.506 3.687 8.193l107.74 308.88.82.4zm-159.765-256.034h-.4l-48.34 148.295h97.907l-49.158-148.295zm421.534 252.756c0 5.325 0 9.832-.82 13.52-.4 3.687-1.23 6.554-2.048 9.012s-2.048 4.097-3.277 5.325-2.868 1.64-4.506 1.64H1432.6c-5.735 0-10.65-1.64-14.748-5.325s-6.145-9.012-6.145-17.205V1883.04a7.87 7.87 0 0 1 1.639-4.916c1.23-1.23 3.277-2.458 5.735-3.687a53.46 53.46 0 0 1 11.06-2.048c4.506-.4 10.24-.82 17.205-.82s12.7.4 17.205.82 8.193 1.23 10.65 2.048c2.868.82 4.506 2.048 5.735 3.687a7.87 7.87 0 0 1 1.639 4.916v280.613h109.378c1.64 0 3.277.4 4.506 1.64 1.23.82 2.458 2.458 3.277 4.916.82 2.048 1.64 5.325 2.048 9.012s.82 8.193.82 13.52h.4zm348.615 3.277c2.048 6.554 3.687 11.47 4.097 15.157s0 6.554-2.048 8.603c-2.048 1.64-5.325 2.868-10.65 3.687-4.916.4-11.88.82-20.483.82-9.012 0-16.386 0-21.302-.4-5.325-.4-9.012-.82-11.88-1.64s-4.506-2.048-5.735-3.277-2.048-3.277-2.868-5.735l-22.94-70.05h-131.5l-22.12 68.003c-.82 2.458-1.64 4.506-2.868 6.145s-2.868 2.868-5.735 4.097c-2.458.82-6.145 1.64-11.06 2.048s-11.06.4-18.844.4c-8.193 0-14.748-.4-19.254-.82s-7.783-1.64-9.832-3.687c-1.64-2.048-2.458-4.916-2.048-9.012.4-3.687 2.048-8.603 4.097-15.157l107.33-309.3c.82-2.868 2.458-5.325 3.687-7.374s3.687-3.277 6.964-4.506c3.277-.82 7.374-1.64 13.1-2.048 5.325-.4 12.7-.4 22.12-.4 10.65 0 18.844 0 25.4.4 6.145.4 11.06.82 14.748 2.048 3.687.82 6.145 2.458 7.374 4.506 1.64 2.048 2.868 4.506 3.687 8.193l107.74 308.88.82.4zm-159.765-256.034h-.4l-48.75 148.295h97.907l-49.158-148.295h.4zm421.534 252.756c0 5.325 0 9.832-.82 13.52-.4 3.687-1.23 6.554-2.048 9.012s-2.048 4.097-3.277 5.325-2.868 1.64-4.506 1.64h-159.765c-5.735 0-10.65-1.64-14.748-5.325s-6.145-9.012-6.145-17.205V1883.04a7.87 7.87 0 0 1 1.639-4.916c1.23-1.23 3.277-2.458 5.735-3.687a53.46 53.46 0 0 1 11.06-2.048c4.506-.4 10.24-.82 17.205-.82s12.7.4 17.205.82 8.193 1.23 10.65 2.048c2.868.82 4.506 2.048 5.735 3.687a7.87 7.87 0 0 1 1.639 4.916v280.613h109.378c1.64 0 3.277.4 4.506 1.64 1.23.82 2.458 2.458 3.277 4.916.82 2.048 1.64 5.325 2.048 9.012s.82 8.193.82 13.52h.4z"/></svg>