<svg viewBox="0 0 512 512" xmlns="http://www.w3.org/2000/svg">
                <g id="Solid">
                  <path
                    d="m464.577 250.984 14.846-5.968c-9.039-22.479-24.554-40.421-43.689-50.522l-7.468 14.151c15.789 8.334 28.684 23.371 36.311 42.339z"
                  />
                  <path d="m160 240h100.167a72.5 72.5 0 0 1 26.912-24h-127.079z" />
                  <path d="m128 112v-28.687l-44.687 44.687h28.687a16.019 16.019 0 0 0 16-16z" />
                  <path d="m325.766 208h52.468l10.666-32h-73.8z" />
                  <path
                    d="m131.142 57.646a8.147 8.147 0 0 1 4.858-1.646h152v-8a16.019 16.019 0 0 0 -16-16h-224a16.019 16.019 0 0 0 -16 16v344a16.019 16.019 0 0 0 16 16h8v-272a8.083 8.083 0 0 1 2.343-5.657l72-72a7.67 7.67 0 0 1 .799-.697z"
                  />
                  <path d="m160 336h88v24h-88z" />
                  <path
                    d="m320 224a56.063 56.063 0 0 0 -56 56v85.09a34.4 34.4 0 0 1 -10.062 24.287 20.266 20.266 0 0 0 -2.338 2.823 29.193 29.193 0 0 1 2.91.488c.05.009.1.02.149.031a29.472 29.472 0 0 1 12.446 6.115l14.437 12.032a27.991 27.991 0 0 1 26.458-18.866h64.82a63.115 63.115 0 0 1 41.81-16h.83a62.4 62.4 0 0 1 30.03 7.675 34.583 34.583 0 0 1 -5.49-18.585v-85.09a55.983 55.983 0 0 0 -56-56zm-24 96h-16v-40h16zm3.216-51.988-13.842-8.024a40.249 40.249 0 0 1 14.614-14.614l8.024 13.842a24.229 24.229 0 0 0 -8.796 8.796zm84.784 27.988h-16v-2.053a5.954 5.954 0 0 0 -5.947-5.947h-20.106a5.947 5.947 0 0 0 -1.88 11.589l28.926 9.642a21.948 21.948 0 0 1 -6.94 42.769h-2.053v8h-16v-8h-2.053a21.973 21.973 0 0 1 -21.947-21.947v-2.053h16v2.053a5.954 5.954 0 0 0 5.947 5.947h20.106a5.947 5.947 0 0 0 1.88-11.589l-28.926-9.642a21.948 21.948 0 0 1 6.94-42.769h2.053v-8h16v8h2.053a21.973 21.973 0 0 1 21.947 21.947z"
                  />
                  <path d="m160 296h88v24h-88z" />
                  <path
                    d="m160 400h65a28.851 28.851 0 0 1 8.19-5.477 36.078 36.078 0 0 1 9.436-16.461 18.311 18.311 0 0 0 1.749-2.062h-84.375z"
                  />
                  <path d="m252.128 256h-92.128v24h88a71.659 71.659 0 0 1 4.128-24z" />
                  <path d="m288 184a8.009 8.009 0 0 0 -8-8h-120v24h128z" />
                  <path d="m144 176h-24a8.009 8.009 0 0 0 -8 8v16h32z" />
                  <path d="m112 216h32v24h-32z" />
                  <path d="m112 256h32v24h-32z" />
                  <path
                    d="m415.46 392h-2.96c-11.726 0-22.566 5.268-30.8 13.616a8 8 0 0 1 -5.7 2.384h-68a12 12 0 0 0 -12 12 11.809 11.809 0 0 0 1.019 4.836 12.065 12.065 0 0 0 1.38 2.363 11.77 11.77 0 0 0 1.119 1.283 11.972 11.972 0 0 0 8.482 3.518h60v16h-58.563a16 16 0 0 1 -9.748-3.313l-41.387-31.8a14.123 14.123 0 0 0 -20.052 2.113 14.117 14.117 0 0 0 2.344 19.893c16.13 12.637 44.56 34.532 53.829 41.744a16.023 16.023 0 0 0 9.807 3.363h143.77v-75.72l-6.68-4.455a46.472 46.472 0 0 0 -25.86-7.825z"
                  />
                  <path d="m464 408h16v72h-16z" />
                  <path d="m112 392a8.009 8.009 0 0 0 8 8h24v-24h-32z" />
                  <path
                    d="m216 421.4v-.36a29.428 29.428 0 0 1 .435-5.04h-96.435a24.028 24.028 0 0 1 -24-24v-208a24.028 24.028 0 0 1 24-24h160a23.911 23.911 0 0 1 16.2 6.306 7.95 7.95 0 0 1 7.8-6.306h24v-72a16.019 16.019 0 0 0 -16-16h-168v40a32.036 32.036 0 0 1 -32 32h-40v288a16.019 16.019 0 0 0 16 16h143.526l-4.135-3.214a29.424 29.424 0 0 1 -11.391-23.386zm-56-325.4h144v16h-144zm0 32h72v16h-72z"
                  />
                  <path d="m112 296h32v24h-32z" />
                  <path d="m112 336h32v24h-32z" />
                </g>
              </svg>